<svg xmlns="http://www.w3.org/2000/svg" id="Layer_1" version="1.1" viewBox="0 0 60 60"><defs><style>.st0{fill:#ff9e3d}</style></defs><path d="M33.8.2c-7.9-1-15.9 1.2-22.1 6C5.3 11.1 1.2 18.3.2 26.2s1.2 15.9 6 22.2c4.9 6.3 12 10.4 19.9 11.4h4c7.6 0 15-2.9 20.5-8.1s8.9-12.4 9.4-20-2-15.1-6.8-21C48.3 5 41.3 1.2 33.8.2M30 2h2.5c.8 0 1.6.2 2.5.3.8 0 1.6.3 2.4.5s1.6.5 2.4.8l-1 .7c-.9.7-1.9 1.2-3 1.7-1 .5-2.1.8-3.3 1.1-1.1.2-2.3.4-3.4.4s-2.3 0-3.4-.3c-.6 0-1.2-.2-1.8-.2h-3.6c-.6 0-1.2.2-1.8.3l-1.6.3c-.3 0-.7 0-1 .2h-3c1.2-1 2.5-1.8 3.9-2.6 1.4-.7 2.8-1.4 4.2-1.9q2.25-.75 4.5-1.2c1.5-.3 3.1-.4 4.6-.4v.2Zm28 29.4-2.9 1.4-2.1-1.4c0-1-.7-1.9-1.4-2.5-.8-.6-1.8-1-2.8-.9-1 0-2 .5-2.6 1.3-.7.7-1.1 1.7-1.1 2.7v.3L37.9 35l-14.8-2c-.3 0-.5 0-.7.2s-.3.4-.4.7c0 .3 0 .5.2.7s.4.3.6.4l15 2h.2l7.3-2.7c0 .2.2.3.4.5l.4.4c.2 0 .3.2.5.3s.3.2.5.3l-3.6 6.5h-.8c-1.4 0-2.6.9-2.9 2.3-.3 1.3.3 2.7 1.5 3.4s2.7.4 3.7-.6c.9-1 1.1-2.5.3-3.7l4.1-7.4c.3 0 .6 0 1-.3.3 0 .6-.3.8-.5.3-.2.5-.4.7-.7s.4-.5.5-.8l1.8 1.2h1l2.3-1.1c-.4 3-1.3 5.8-2.6 8.5s-3 5.2-5.1 7.3c-2.1 2.2-4.5 3.9-7.2 5.3s-5.5 2.3-8.5 2.8c.6-.4 1.2-.8 1.8-1.3s1.1-.9 1.7-1.5c.5-.5 1.1-1 1.5-1.6.5-.6 1-1.1 1.4-1.7.2-.2.2-.5.2-.8s-.2-.5-.4-.7-.5-.2-.7-.2c-.3 0-.5.2-.7.4-.5.6-1 1.3-1.5 1.8-.5.6-1.1 1.2-1.7 1.7s-1.2 1-1.9 1.5-1.3.9-2 1.3l-1.1.6v-3.3c0-.3-.1-.5-.3-.7s-.4-.3-.7-.3-.5 0-.7.3-.3.4-.3.7v3.3l-1.1-.6c-.7-.4-1.4-.8-2-1.3-.7-.5-1.3-1-1.9-1.5S22.5 53 22 52.4l-1.5-1.8c-.2-.2-.4-.4-.7-.4s-.5 0-.7.2-.4.4-.4.7 0 .5.2.8c.4.6.9 1.2 1.4 1.7.5.6 1 1.1 1.5 1.6s1.1 1 1.7 1.5 1.2.9 1.8 1.3c-2.8-.4-5.5-1.3-8-2.5q-3.75-1.8-6.9-4.8c-3.2-3-3.8-4.1-5.2-6.6-1.4-2.4-2.4-5.1-3-7.8h7.4l8-1c.3 0 .5-.2.7-.4s.2-.5.2-.8-.2-.5-.4-.7-.5-.2-.8-.2l-7.9 1H2.3c-.3-2.2-.4-4.4-.2-6.6s.7-4.4 1.4-6.5 1.7-4.1 2.9-6q1.8-2.85 4.2-5.1h4.7c.3 0 .6 0 .9-.1.3 0 .6-.1.9-.2l1.6-.3c.5-.1 1.1-.2 1.6-.2h3.2c.5 0 1.1.1 1.6.2.3 0 .6.1.9.1s.6 0 .9.1h1.8c1 0 2 0 3-.2s1.9-.4 2.9-.7c.9-.3 1.9-.7 2.7-1.1.9-.4 1.7-.9 2.5-1.5l2-1.4c2.5 1.2 4.8 2.7 6.9 4.6 2 1.9 3.8 4 5.2 6.4s2.5 4.9 3.2 7.6 1 5.5.8 8.2v-.2Zm-7 .6c0 .8-.5 1.5-1.2 1.8-.8.3-1.6 0-2.2-.4-.6-.6-.8-1.4-.4-2.2.3-.7 1-1.2 1.8-1.2s.5 0 .8.1c.2.1.5.3.6.4.2.2.3.4.4.6s.2.5.2.8Zm-7 13c0 .4-.2.8-.6.9-.4.2-.8 0-1.1-.2-.3-.3-.4-.7-.2-1.1q.3-.6.9-.6h.4s.2 0 .3.2.2.2.2.3v.4Z" class="st0"/><path d="M23.5 14s-.1 0-.2-.1h-.2s-.1 0-.2-.1h-2.8c-.9 0-1.7.2-2.5.5s-1.5.8-2.1 1.4-1.1 1.3-1.4 2.1-.5 1.6-.5 2.5v.8c.3 2.2 1.6 4.2 3.6 5.1 2 1 4.4.9 6.3-.3s3-3.2 3.1-5.5c0-2.2-1.1-4.3-3-5.5V14Zm-8 5.5c0-.6.1-1.2.3-1.7.2-.6.6-1 1-1.5.4-.4.9-.7 1.5-1 .6-.2 1.1-.3 1.7-.3h2c0 .8-.2 1.5-.6 2.2s-.9 1.2-1.6 1.6c-.6.4-1.4.6-2.2.7-.8 0-1.5-.1-2.2-.5v.5ZM20 24c-.4 0-.8 0-1.1-.1-.4-.1-.7-.2-1.1-.4-.3-.2-.6-.4-.9-.7s-.5-.6-.7-.9c.4 0 .9.1 1.3.1s.9 0 1.3-.1c.4 0 .9-.2 1.3-.4l1.2-.6c.3-.2.6-.5.9-.7.3-.3.5-.6.7-.9s.4-.7.6-1c.2-.4.3-.7.4-1.1.1.2.2.4.3.5s.2.4.2.6.1.4.1.6v.6c0 .6-.1 1.2-.3 1.7-.2.6-.6 1-1 1.5s-.9.7-1.5 1c-.6.2-1.1.3-1.7.3m22-11q-1.05 0-2.1.6c-.6.4-1.1.9-1.5 1.6-.3.6-.5 1.4-.5 2.1s.3 1.4.7 2l-2.5 3.1c-.2.2-.2.5-.2.7 0 .3.2.5.4.7s.5.2.7.2c.3 0 .5-.2.7-.4l2.5-3c.2.1.5.2.8.3.3 0 .5.1.8.1h.8c.3 0 .5-.1.8-.2l2.7 4.8s0 .1.2.2l.2.2s.2 0 .2.1h.7l.3-.3c0-.1 0-.2.2-.4s0-.3 0-.4v-.4l-2.8-4.9c0-.2.3-.3.4-.5l.3-.6c0-.2 0-.4.2-.6v-.6l4.9.7c.3 0 .5 0 .7-.2s.4-.4.4-.7 0-.5-.2-.7-.4-.4-.7-.4l-5.6-.8-.6-.9c-.2-.3-.5-.5-.8-.7s-.6-.3-1-.4c-.4 0-.7-.1-1.1-.1zm0 6c-.8 0-1.5-.5-1.8-1.2-.3-.8 0-1.6.4-2.2.6-.6 1.4-.8 2.2-.4.7.3 1.2 1 1.2 1.8s0 .5-.2.8c0 .2-.3.5-.4.6-.2.2-.4.3-.6.4-.2 0-.5.1-.8.1ZM29.1 48.4c.1 0 .3.2.4.3.1 0 .3 0 .5.2h1.2c.4 0 .7-.2 1-.3s.6-.4.8-.7.4-.6.5-.9.2-.7.2-1.1c1.4-.2 2.6-1.2 2.9-2.6s-.2-2.9-1.4-3.7-2.7-.9-3.9 0c-1.2.8-1.8 2.2-1.5 3.6-.5.2-1 .5-1.3.9-.4.4-.6.9-.7 1.5 0 .5 0 1.1.1 1.6.2.5.5.9 1 1.3l.2-.2Zm4.4-7.4c.6 0 1.2.4 1.4.9.2.6 0 1.2-.3 1.6s-1.1.6-1.6.3c-.6-.2-.9-.8-.9-1.4v-.6c0-.2.2-.3.3-.5 0 0 .3-.2.5-.3zm-3.3 4.4h.1l.2-.2h.4l.2.2.2.2h.4v.6l-.1.2-.1.2h-1c-.1 0-.2 0-.3-.2-.1 0-.2-.2-.3-.3 0 0-.1-.2-.1-.4v-.8l.4.2ZM7 30h2v2H7zM11 28h2v2h-2zM8 25h2v2H8zM5 21h2v2H5zM9 20h2v2H9zM7 16h2v2H7zM4 26h2v2H4zM6 38h2v2H6zM9 41h2v2H9zM34 15h2v2h-2zM31 11h2v2h-2zM36 11h2v2h-2zM40 9h2v2h-2zM18.5 43.4c-.1 0-.3 0-.4-.2h-1.5l-1.7-3.5c-.1-.2-.3-.4-.6-.5h-.8c-.2 0-.4.3-.5.6v.8l1.7 3.5-.3.3s-.2.2-.2.4-.1.3-.2.4c0 0 0 .3-.1.4l-3.3.6c-.2 0-.4.2-.6.4s-.2.4-.2.7.1.5.3.7.4.3.7.3l3.2-.6s0 .2.2.3c0 0 .1.2.2.3 0 0 .1.2.2.2 0 0 .2 0 .2.2h.4l-.7 2v.4s0 .3.1.4c0 0 .1.2.2.3 0 0 .2.2.3.2h.6s.2 0 .2-.2c0 0 .1-.2.1-.3l.8-2.4h.4c.1 0 .2 0 .4-.2.1 0 .2-.2.3-.2s.2-.2.3-.3l3.6.9c.3 0 .5 0 .7-.2q.3-.3.3-.6c0-.3 0-.5-.2-.7-.1-.2-.3-.3-.6-.4l-3.2-.8v-1.5l2.8-2.1c.2-.2.4-.4.4-.7s0-.5-.2-.7-.4-.4-.7-.4-.5 0-.7.2l-2.9 2.2h1Zm-.7 3.2c-.3.4-.8.5-1.2.3s-.6-.7-.5-1.2.6-.8 1-.7.9.4.9.9v.6l-.1.2Z" class="st0"/></svg>