<svg xmlns="http://www.w3.org/2000/svg" width="60" height="60" version="1.2"><style>.a{fill:#f59e0b}</style><path d="M33.8.2c-7.9-1-15.9 1.2-22.2 6.1C5.3 11.2 1.2 18.3.2 26.2c-1 7.9 1.2 15.9 6.1 22.2 4.9 6.3 12 10.4 19.9 11.4q.5 0 1 .1h.9q.5.1 1 .1h1c7.6 0 14.9-2.9 20.5-8.1 5.6-5.3 8.9-12.4 9.4-20s-2-15.2-6.9-21C48.3 5 41.4 1.2 33.8.2zM30 2q1.2 0 2.5.1 1.2.1 2.4.3l2.4.6q1.2.3 2.4.7l-1 .7q-1.4 1-3 1.7t-3.2 1.1q-1.7.3-3.5.4-1.7 0-3.4-.3-.9-.2-1.8-.3H22q-.9 0-1.8.1l-1.8.2-1.6.4q-.5.1-1 .1-.5.1-1 .1-.5.1-1 .1h-1.1q1.9-1.5 3.9-2.6 2.1-1.1 4.3-1.9 2.2-.7 4.5-1.1Q27.7 2 30 2zm28 29.4-2.9 1.4-2.2-1.4c-.1-1-.6-1.9-1.4-2.5-.8-.7-1.8-1-2.8-.9-1 .1-1.9.5-2.6 1.3C45.4 30 45 31 45 32v.3L37.9 35l-14.8-2q-.4 0-.7.2-.3.3-.4.7 0 .4.2.7.3.3.7.4l15 2h.4l.1-.1 7.3-2.7q.1.2.3.5.2.2.5.4.2.2.4.3.3.2.6.3l-3.6 6.5q-.1-.1-.2-.1t-.3-.1H43c-1.4 0-2.6.9-2.9 2.3-.4 1.3.2 2.7 1.5 3.4 1.2.6 2.7.4 3.6-.7.9-1 1.1-2.5.3-3.6l4.1-7.5q.5 0 1-.2.4-.2.8-.5t.7-.7q.3-.4.5-.9l1.8 1.2q.1.1.3.1.1.1.2.1h.3q.1 0 .2-.1l2.3-1.2c-.4 3-1.2 5.9-2.5 8.6-1.4 2.7-3.1 5.1-5.2 7.3-2.1 2.1-4.5 3.9-7.2 5.3-2.6 1.4-5.5 2.3-8.5 2.8q1-.6 1.9-1.3.8-.7 1.7-1.5.8-.7 1.5-1.6.7-.8 1.4-1.7.2-.3.2-.8-.1-.4-.4-.6-.4-.2-.8-.2-.4.1-.6.4-.7 1-1.5 1.9-.8.8-1.7 1.6-.9.8-1.9 1.5-1 .7-2 1.3l-1.1.6V54q0-.4-.3-.7-.3-.3-.7-.3-.4 0-.7.3-.3.3-.3.7v3.3l-1.1-.6q-1-.6-2-1.3-1-.7-1.9-1.5-.9-.8-1.7-1.6-.8-.9-1.5-1.9-.2-.3-.6-.4-.5 0-.8.2-.3.2-.4.6 0 .5.2.8.6.9 1.4 1.7.7.8 1.5 1.6t1.7 1.5l1.8 1.2c-2.7-.4-5.4-1.2-7.9-2.5-2.6-1.2-4.9-2.8-6.9-4.7-2-2-3.8-4.2-5.2-6.6-1.4-2.4-2.4-5.1-3-7.8h7.5l8-1c.3 0 .5-.2.7-.4.2-.2.2-.5.2-.7 0-.3-.2-.5-.4-.7-.2-.2-.5-.2-.7-.2l-8 1H2.3q-.5-3.3-.2-6.6.3-3.4 1.4-6.5 1.1-3.2 2.9-6 1.8-2.8 4.2-5.1.4 0 .7.1h.7q.4.1.7.1h1.6q.5 0 1-.1.5 0 .9-.1l1-.2 1.6-.3q.8-.2 1.6-.2.8-.1 1.6-.1h1.7q.8.1 1.6.3.4 0 .8.1.5.1.9.1h.9q.4.1.8.1 1.5 0 3-.3 1.5-.2 2.9-.6 1.4-.5 2.7-1.1 1.3-.7 2.6-1.5l2-1.5c2.5 1.2 4.8 2.8 6.8 4.6 2.1 1.9 3.9 4 5.3 6.4 1.4 2.3 2.5 4.9 3.1 7.6.7 2.7 1 5.4.9 8.2zm-7 .6c0 .8-.5 1.5-1.2 1.8-.8.4-1.6.2-2.2-.4-.6-.6-.8-1.4-.4-2.2.3-.7 1-1.2 1.8-1.2q.4 0 .8.2.3.1.6.4.3.3.4.6.2.4.2.8zm-7 13c0 .4-.2.8-.6.9-.4.2-.8.1-1.1-.2-.3-.3-.4-.7-.2-1.1.1-.4.5-.6.9-.6q.2 0 .4.1t.3.2q.1.1.2.3.1.2.1.4z" class="a"/><path d="M23.5 14h-.1q0-.1-.1-.1-.1-.1-.2-.1-.1-.1-.2-.1t-.2-.1h-.1q0-.1-.1-.1-.1-.1-.2-.1t-.2-.1h-.2q-.1 0-.1-.1h-.4q-.1-.1-.2-.1h-.4q-.1-.1-.2-.1H20q-1.3 0-2.5.5t-2.1 1.4q-.9.9-1.4 2.1-.5 1.2-.5 2.5V20.2c.3 2.3 1.7 4.2 3.7 5.2 2 .9 4.3.8 6.2-.4 1.9-1.2 3.1-3.2 3.1-5.4 0-2.3-1.1-4.4-3-5.6zm-8 5.5q0-.9.3-1.7.4-.8 1-1.5.7-.6 1.5-1 .8-.3 1.7-.3H20.6q.1.1.2.1h.2l.1.1h.2q.1 0 .2.1h.2l.1.1q.1.1.2.1c0 .8-.2 1.5-.6 2.2-.3.7-.9 1.2-1.5 1.6-.7.4-1.4.7-2.2.7-.8 0-1.5-.1-2.2-.5zM20 24q-.6 0-1.1-.1-.6-.2-1.1-.5-.5-.3-.9-.7-.4-.4-.7-.9.6.2 1.3.2.7 0 1.3-.1.7-.2 1.3-.4.6-.3 1.1-.7.5-.3.9-.7.4-.4.8-.9.3-.5.5-1 .3-.5.4-1.1.2.3.3.6.1.2.2.6l.2.6v.6q0 .9-.3 1.7-.4.8-1 1.5-.7.6-1.5 1-.8.3-1.7.3zM42 13c-.7 0-1.4.2-2.1.6-.6.4-1.1.9-1.4 1.5-.4.7-.5 1.4-.5 2.1.1.8.3 1.5.7 2.1l-2.5 3.1q-.2.3-.2.7.1.4.4.7.3.2.7.2.4-.1.7-.4l2.4-3q.4.2.8.3.4.1.8.1t.8-.1q.4 0 .8-.2l2.7 4.8.2.2.2.2q.1 0 .2.1H47.3l.1-.1h.1q.2-.1.3-.3.1-.1.2-.3v-.4q0-.2-.1-.4L45 19.6q.3-.3.4-.5.2-.3.3-.6l.2-.6q.1-.3.1-.6l4.9.7q.4 0 .7-.2.3-.3.4-.7 0-.4-.2-.7-.2-.3-.7-.4l-5.5-.8q-.3-.5-.7-.9-.3-.4-.8-.7-.5-.3-1-.4-.5-.2-1.1-.2zm0 6c-.8 0-1.5-.5-1.8-1.2-.4-.8-.2-1.6.4-2.2.6-.6 1.4-.8 2.2-.4.7.3 1.2 1 1.2 1.8q0 .4-.2.8-.1.3-.4.6-.3.3-.6.4-.4.2-.8.2zM29.2 48.4q.1.1.4.2.2.2.4.2.3.1.5.2H31.4q.5-.1 1-.3.5-.3.9-.7.3-.4.5-1 .2-.5.2-1c1.4-.2 2.6-1.3 2.9-2.7.4-1.4-.2-2.8-1.3-3.7-1.2-.8-2.8-.9-4-.1-1.2.8-1.8 2.2-1.5 3.7q-.8.2-1.4.8-.5.7-.7 1.5-.1.8.2 1.6.3.8 1 1.3zm4.3-7.4c.6 0 1.2.4 1.4.9.2.6.1 1.2-.3 1.7-.5.4-1.1.5-1.7.3-.5-.2-.9-.8-.9-1.4q0-.3.1-.6.1-.2.3-.5.3-.2.5-.3.3-.1.6-.1zm-3.3 4.4q.1-.1.1-.2.1 0 .2-.1h.2q.1-.1.2-.1h.2l.2.2q.1.1.2.1l.2.2q.1 0 .2.1v.1h.1V46.3l-.1.1q-.1.1-.1.2-.1.1-.1.2-.1 0-.2.1h-.2q-.1.1-.2.1h-.4q-.2-.1-.3-.2-.2-.1-.3-.3-.1-.2-.1-.4v-.4q.1-.1.1-.2.1 0 .1-.1z" class="a"/><path fill-rule="evenodd" d="M7 30h2v2H7zM11 28h2v2h-2zM8 25h2v2H8zM5 21h2v2H5zM9 20h2v2H9zM7 16h2v2H7zM52 57h2v2h-2zM3 58h2v2H3zM3 52h2v2H3zM6 55h2v2H6zM0 55h2v2H0zM57 56h2v2h-2zM54 52h2v2h-2zM58 0h2v2h-2zM58 5h2v2h-2zM52 3h2v2h-2zM1 1h2v2H1zM7 3h2v2H7zM4 26h2v2H4zM6 38h2v2H6zM9 41h2v2H9zM34 15h2v2h-2zM31 11h2v2h-2zM36 11h2v2h-2zM40 9h2v2h-2z" class="a"/><path d="M18.5 43.4q-.2-.1-.5-.2-.2-.1-.4-.1-.3-.1-.5-.1h-.5l-1.7-3.4q-.2-.4-.6-.5-.4-.2-.7 0-.4.2-.5.6-.2.4 0 .7l1.8 3.5q-.2.2-.3.4-.1.1-.2.3l-.2.4q-.1.2-.1.4l-3.3.6q-.4.1-.6.4-.2.3-.2.7.1.4.3.6.3.3.7.3h.2l3.1-.6q.1.1.2.3l.2.2q.1.1.2.3.1.1.3.2l.1.1h.1q.1.1.2.1 0 .1.1.1l-.6 2q-.1.2-.1.4t.1.3l.2.4q.2.1.4.1 0 .1.1.1h.5q.2-.1.3-.2l.2-.2q.1-.1.1-.3l.8-2.4q.2-.1.4-.1l.4-.2q.2-.1.3-.3.2-.1.3-.2l3.6.9H23q.4 0 .7-.3.2-.2.3-.6 0-.4-.2-.7-.2-.3-.6-.4l-3.2-.8V45.6q0-.1-.1-.2v-.1q0-.1-.1-.2v-.2l2.8-2.1q.3-.3.4-.7 0-.4-.2-.7-.3-.3-.7-.4-.4 0-.7.2zm-.7 3.2c-.3.4-.8.5-1.2.3-.4-.2-.7-.7-.5-1.2.1-.4.5-.7 1-.7s.9.4.9.9v.4q0 .1-.1.1 0 .1-.1.2z" class="a"/></svg>